<?xml version="1.0" encoding="utf-8"?>
<!-- Generator: Adobe Illustrator 26.0.0, SVG Export Plug-In . SVG Version: 6.00 Build 0)  -->
<svg version="1.1" id="Layer_1" xmlns="http://www.w3.org/2000/svg" xmlns:xlink="http://www.w3.org/1999/xlink" x="0px" y="0px"
	 viewBox="0 0 297.1 326.6" style="enable-background:new 0 0 297.1 326.6;" xml:space="preserve">
<style type="text/css">
	.st0{fill:#FFFFEB;}
	.st1{fill:none;stroke:#FFFFEB;stroke-width:2;stroke-miterlimit:10;}
</style>
<path class="st0" d="M86.7,125.3l-13.5,12l-0.7,10.5l-0.7,10.5l13.8-12l13.9-11.9l12,13.5l12.1,13.5l13.8-11.9l13.8-12l12.2,13.6
	l12.2,13.6l13.7-11.8l13.6-11.8l12.2,13.6l12.2,13.7l0.7-10.5l0.7-10.5l-12.2-13.7l-12.2-13.6l-13.7,11.8L177,143.6l-12.2-13.6
	l-12.2-13.7l-13.9,12l-13.8,11.9l-12-13.5c-6.6-7.4-12.2-13.4-12.4-13.4S94,118.8,86.7,125.3z"/>
<path class="st0" d="M83.7,175.1l-13.8,11.9l-0.7,10.5l-0.7,10.5l13.7-11.8l13.6-11.8l11.9,13.3c6.5,7.3,12.2,13.3,12.5,13.3
	s6.8-5.2,14.1-11.6l13.5-11.7l11.9,13.3c6.5,7.2,12.1,13.3,12.4,13.3s6.4-5.1,13.6-11.5s13.3-11.5,13.8-11.4s6.1,6,12.6,13.3
	l11.9,13.3l0.7-10.5l0.7-10.5l-12.2-13.6l-12.2-13.7l-13.8,11.9l-13.9,12l-12-13.5l-12-13.5l-13.7,11.8L122,190.4l-12.2-13.7
	l-12.2-13.6L83.7,175.1z"/>
<circle class="st1" cx="148.6" cy="165.7" r="135.6"/>
</svg>
