<?xml version="1.0" encoding="utf-8"?>
<!-- Generator: Adobe Illustrator 26.0.0, SVG Export Plug-In . SVG Version: 6.00 Build 0)  -->
<svg version="1.1" id="Layer_1" xmlns="http://www.w3.org/2000/svg" xmlns:xlink="http://www.w3.org/1999/xlink" x="0px" y="0px"
	 viewBox="0 0 287.1 315.6" style="enable-background:new 0 0 287.1 315.6;" xml:space="preserve">
<style type="text/css">
	.st0{fill:#FFFFEB;}
	.st1{fill:none;stroke:#FFFFEB;stroke-width:2;stroke-miterlimit:10;}
</style>
<path class="st0" d="M91.6,100.5c-5.4,1.4-9.8,4.9-11.7,9.3c-2.1,5-2.5,14.1-0.9,21.9c2.2,11.1,5.5,18.1,10.6,22.8
	c2.4,2.2,17.4,10.9,19,11.1c0.6,0,0.9-1.7,1.3-7.7l0.5-7.7l-4.4-2.6c-2.4-1.3-4.6-3.1-6.3-5.3c-2.2-3.3-5.5-14.7-5.6-20.1
	c-0.1-3.4,0-3.8,1.6-5.1c3.5-2.9,9.8-1.2,21.3,5.6c4.2,2.5,10.9,6.3,14.6,8.5l6.9,4l-2.5,48.8l-3.1,48.5l8.1,0.5l8.2,0.5l3.8-48.5
	l3.5-48.8l2.9-1.2c1.6-0.6,8.5-3.5,15.4-6.5c12.6-5.4,17.1-6.8,21.9-6.4c3.6,0.2,5.6,2.3,5.4,5.7c-0.2,2.7-4.8,15.5-6.8,18.6
	c-1.8,2.9-4.4,4.9-8.9,6.6l-3.8,1.5l-0.6,7.9c-0.4,5.2-0.4,7.9,0.1,7.9c1.8,0.1,18.1-7,20.7-8.9c5.5-4.2,9.2-10.2,12.8-20.9
	c2.6-7.6,3.4-16.8,2-21.8c-1.6-4.7-5-8.5-9.5-10.5c-7.1-2.9-17.8-2.8-29.4,0.3c-7.1,1.9-9.3,2.8-17.4,7.2l-6.7,3.7l-6.2-0.4
	l-6.2-0.4l-5.9-4.4c-11-8.1-22.3-12.8-34.2-14.1C96.7,99.5,95.1,99.6,91.6,100.5z"/>
<circle class="st1" cx="144.1" cy="158.6" r="135.6"/>
</svg>
