<?xml version="1.0" encoding="utf-8"?>
<!-- Generator: Adobe Illustrator 26.0.0, SVG Export Plug-In . SVG Version: 6.00 Build 0)  -->
<svg version="1.1" id="Layer_1" xmlns="http://www.w3.org/2000/svg" xmlns:xlink="http://www.w3.org/1999/xlink" x="0px" y="0px"
	 viewBox="0 0 304.1 326.6" style="enable-background:new 0 0 304.1 326.6;" xml:space="preserve">
<style type="text/css">
	.st0{fill:#FFFFEB;}
	.st1{fill:none;stroke:#FFFFEB;stroke-width:2;stroke-miterlimit:10;}
</style>
<path class="st0" d="M132.9,102c-7.8,0.1-15.6,0.6-23.3,1.5c-23,3-37,14.6-39.5,32.3c-1.2,8.6,1.1,16.9,6.8,24.8
	c11.6,16,31.3,21,48,12.1c9.5-5.1,17.1-13.6,20.2-23c2.6-7.7,1.3-17-3.4-24.6l-2.2-3.7l4-0.2c5.6-0.4,22.9,1.5,31.8,3.3
	c17,3.6,30.1,10.1,42.7,21.1l5.2,4.6l0.6-9l0.6-9l-3.3-3.4c-11-10.6-26.9-18.5-46.1-22.6C168,104.5,140.4,101.9,132.9,102z
	 M115.6,124.1c9.8,5,14.2,16.5,9.4,24.3c-7.8,12.6-22.4,13.9-31.5,2.8c-6.9-8.4-6-17.1,2.5-24C102.1,122.2,109.6,121,115.6,124.1z"
	/>
<path class="st0" d="M176.9,158.1c-7.2,1.2-13.1,4.2-19.6,9.6c-13.8,11.7-17.4,25.1-10.6,39.6c1,2.1,2.3,4.6,2.9,5.5l1.1,1.7
	l-16.8-1.5c-13.4-1.1-18.3-1.8-23.6-3.3c-16.3-4.5-29.1-11.4-40.1-21.4l-3.5-3.3l-0.6,9.1l-0.6,9.1l3.2,3.1
	c17.4,16.9,46,25.8,84.6,26.3c34.9,0.5,56-7,63.4-22.4c2.5-5.7,3.6-11.9,3.2-18.1C218,171.9,196.5,155,176.9,158.1z M189.9,178.3
	c3.5,1.7,7.9,6.5,9.6,10.4c4.3,10-3.9,22.2-16,23.9c-5.9,0.8-10.7-1.2-15.5-6.6c-6-6.5-7.1-13.3-3-19.8
	C170.6,177,180.6,173.8,189.9,178.3L189.9,178.3z"/>
<circle class="st1" cx="149" cy="164.2" r="135.6"/>
</svg>
