<?xml version="1.0" encoding="utf-8"?>
<!-- Generator: Adobe Illustrator 26.0.0, SVG Export Plug-In . SVG Version: 6.00 Build 0)  -->
<svg version="1.1" id="Layer_1" xmlns="http://www.w3.org/2000/svg" xmlns:xlink="http://www.w3.org/1999/xlink" x="0px" y="0px"
	 viewBox="0 0 303.1 310.6" style="enable-background:new 0 0 303.1 310.6;" xml:space="preserve">
<style type="text/css">
	.st0{fill:#FFFFEB;}
	.st1{fill:none;stroke:#FFFFEB;stroke-width:2;stroke-miterlimit:10;}
</style>
<path class="st0" d="M198,74.9c-12.2,0.7-23.3,7.3-29.8,17.7c-4.3,7.5-5.1,16.5-2.1,24.7c0.3,0.9-0.1,1.1-2.4,1.2H161l-21.7,39.4
	c-12.2,22.1-21.9,39.1-22.2,38.6s-3.8-11.3-7.8-24.1s-11.2-35.1-15.7-49.6s-8.3-26.4-8.3-26.5s-4.8-0.5-10.6-0.9S64,94.8,64,95.1
	s9.4,29.3,20.9,64.4l20.7,63.9l10.1,0.6l10.1,0.6l24.5-43.8l24.4-43.8l5.2,0.1l5.2,0.1l7.9,8c8.6,8.7,12.2,13.8,16,22.3
	c3.7,8,4.5,12.9,3.7,20.6c-0.6,5.5-1,6.9-3.3,10.5c-6.4,10.1-19.9,15.6-38.2,15.7h-6.5l-0.6,8.6l-0.5,8.6l8,0.1
	c20.5,0.1,35.3-4.1,47.1-13.5c6.9-5.5,11.2-11.2,13.8-18.7c2.2-6,2.7-16.6,1.1-23.4c-2.4-10.5-10.7-25.9-18.5-33.9l-4.6-4.8l3.8-1.3
	c2.3-0.8,6-3,9.4-5.6c7.9-6.3,11.4-12.4,12-21.5c0.4-5.5-0.4-9-2.8-14.3C226.8,81.7,213.1,73.9,198,74.9z M207,95.4
	c10,5.5,10.9,16.5,1.8,22.7c-3.5,2.5-5.6,3-10.1,2.7c-10.4-0.7-17.4-10.7-13.1-18.5c1.9-3.6,5.1-6.4,8.8-7.9
	C199.1,92.6,202.5,92.9,207,95.4z"/>
<circle class="st1" cx="149.9" cy="153.2" r="135.6"/>
</svg>
