<?xml version="1.0" encoding="utf-8"?>
<!-- Generator: Adobe Illustrator 26.0.0, SVG Export Plug-In . SVG Version: 6.00 Build 0)  -->
<svg version="1.1" id="Layer_1" xmlns="http://www.w3.org/2000/svg" xmlns:xlink="http://www.w3.org/1999/xlink" x="0px" y="0px"
	 viewBox="0 0 298.1 315.6" style="enable-background:new 0 0 298.1 315.6;" xml:space="preserve">
<style type="text/css">
	.st0{fill:#FFFFEB;}
	.st1{fill:none;stroke:#FFFFEB;stroke-width:2;stroke-miterlimit:10;}
</style>
<path class="st0" d="M149.8,76.4c-17.7,1.1-29.7,9.8-36.9,26.6c-2.2,5.3-2.6,6.9-3,12.7c-0.5,7.7,0.2,10.2,7,27.4
	c2.4,5.9,4.3,10.9,4.3,10.9c-1.7-0.1-3.4-0.3-5.1-0.5c-9.7-1.3-19.5,1.5-26.9,7.9c-17.1,14.6-14.2,40.1,5.9,51.3
	c9,5,18.4,5.4,28.3,1.3c9-3.7,16.8-12.8,18.9-22.1c3.1-13,1.4-23.2-7.6-48.2c-7.9-22-8.7-26-6.3-33.9c3.3-10.7,9.6-15.7,21.3-16.9
	c3.6-0.4,7-0.1,14.8,1c20.6,2.9,25.9,4.7,31.5,10.7c5.4,5.8,6.3,9.2,5.4,21.4c-0.6,8.7-0.8,10-2.8,14.5c-2.9,6.6-6.3,12.3-18.6,30.6
	c-11.9,17.7-14.2,21.8-17.1,30.6c-5.7,17.4-5.6,30.6,0.5,39c4.1,5.7,15.7,10.9,24,10.7c8.6-0.2,18-4.4,28-12.4
	c6.1-4.9,6.2-4-0.7-12.2l-3.9-4.7l-6.1,5.1c-8.2,6.9-11.7,8.5-17,8.2c-4.8-0.4-9.7-2.7-10.9-5.1c-2-4.2-1.1-12.5,2.6-23.7
	c2.5-7.7,6.4-14.2,17.1-28.9c9.7-13.2,11.5-16.2,15.4-24.3c7.2-15.2,9.1-36.8,4.5-49.1c-2.3-5.7-6-10.7-10.7-14.7
	c-8.4-6.5-18-9.6-36.1-11.8C156.7,76.1,155.9,76,149.8,76.4z M118.8,169.2c6.2,3.6,10.2,10.5,9.8,17c-0.5,6.6-5.2,12.8-12,15.7
	c-8.4,3.5-18.7-0.8-22.9-9.7c-3.6-7.5-2-14.5,4.7-20.2c2.1-1.9,4.5-3.4,7.1-4.4C110.1,166.5,114.7,167.1,118.8,169.2L118.8,169.2z"
	/>
<circle class="st1" cx="148.9" cy="163.7" r="135.6"/>
</svg>
