<?xml version="1.0" encoding="utf-8"?>
<!-- Generator: Adobe Illustrator 26.0.0, SVG Export Plug-In . SVG Version: 6.00 Build 0)  -->
<svg version="1.1" id="Layer_1" xmlns="http://www.w3.org/2000/svg" xmlns:xlink="http://www.w3.org/1999/xlink" x="0px" y="0px"
	 viewBox="0 0 301.1 326.6" style="enable-background:new 0 0 301.1 326.6;" xml:space="preserve">
<style type="text/css">
	.st0{fill:#FFFFEB;}
	.st1{fill:none;stroke:#FFFFEB;stroke-width:2;stroke-miterlimit:10;}
</style>
<path class="st0" d="M144.6,108.6c-14.9,2.6-30.6,17.3-32.7,30.6l-0.7,4.3l-19.5-1.2L72.1,141l-0.6,9.8l-0.6,9.8l29.2,1.9l29.3,1.9
	l0.7-11.6c0.7-11,0.8-11.9,2.7-14.9c3.7-6.1,12.4-11.2,18.3-10.9s14.2,6.8,16.8,13.4c1.4,3.3,1.4,4.5,0.8,15l-0.7,11.4l29.2,1.9
	l29.2,1.9l0.6-9.8l0.6-9.8l-19.6-1.2l-19.6-1.3l0.1-2.3c0.7-10.7-9.3-26.6-20.8-33C159.5,108.7,152.6,107.3,144.6,108.6z"/>
<path class="st0" d="M69,188.8l-0.6,9.1l77.8,5l77.8,5l0.6-9.1l0.6-9.1l-77.8-5l-77.8-5L69,188.8z"/>
<circle class="st1" cx="150.1" cy="164" r="135.6"/>
</svg>
