<?xml version="1.0" encoding="utf-8"?>
<!-- Generator: Adobe Illustrator 26.0.0, SVG Export Plug-In . SVG Version: 6.00 Build 0)  -->
<svg version="1.1" id="Layer_1" xmlns="http://www.w3.org/2000/svg" xmlns:xlink="http://www.w3.org/1999/xlink" x="0px" y="0px"
	 viewBox="0 0 304.1 326.6" style="enable-background:new 0 0 304.1 326.6;" xml:space="preserve">
<style type="text/css">
	.st0{fill:#FFFFEB;}
	.st1{fill:none;stroke:#FFFFEB;stroke-width:2;stroke-miterlimit:10;}
</style>
<path class="st0" d="M97,96.2c18.3,17.1,26.2,30.6,28.3,48.1c0.4,3,0.6,6.8,0.7,8.4v2.9l-15.4-1l-15.2-1l-0.6,9l-0.6,9l15,1
	c8.2,0.5,15.1,1.1,15.3,1.3s-0.1,2.8-0.6,5.9c-2,12.2-7.5,23.6-15.7,32.9c-4,4.5-21.4,19-22.6,19c-0.3,0-0.6,0.2-0.6,0.6
	c0,0,0,0,0,0c0,0.4,3.8,0.9,10.3,1.3l10.3,0.7l5.9-4.4c18.2-13.4,27-26.9,30.6-46.9c0.6-3.4,1.1-6.6,1.1-7.2
	c0.1-0.8,1.9-0.9,13.5-0.1l13.4,0.9l-0.2,3.3c-0.1,7.1,0.7,14.1,2.4,20.9c3.2,11.6,7.4,18.5,18.3,30.3l8.4,9.1l10.7,0.7l10.7,0.7
	l-10.5-11.4c-8.2-9-11.2-12.7-13.5-17c-5-9.6-7.8-20.3-8.2-31.1l-0.2-4.3l15.1,1l15.2,1l0.6-9l0.6-9l-15.1-1l-15.1-1l0.1-1.5
	c0.5-6.1,3.9-16.8,7.6-23.9c5.2-9.9,12.4-17.6,26.2-27.9l6.2-4.7l-10.9-0.7l-10.9-0.7l-8.6,6.7c-9.4,7.4-14.6,13.3-19.2,21.4
	c-4.3,7.6-7.9,19-8.4,27.2l-0.2,2.8l-13.4-0.9c-12.3-0.8-13.4-0.9-13.3-2c0.2-3.3-0.7-13.4-1.6-18.1c-2.7-14.2-9.3-25.5-21.8-37.4
	l-6-5.7l-10.8-0.7l-10.9-0.7L97,96.2z"/>
<circle class="st1" cx="157.8" cy="164.9" r="135.6"/>
</svg>
