<?xml version="1.0" encoding="utf-8"?>
<!-- Generator: Adobe Illustrator 26.0.0, SVG Export Plug-In . SVG Version: 6.00 Build 0)  -->
<svg version="1.1" id="Layer_1" xmlns="http://www.w3.org/2000/svg" xmlns:xlink="http://www.w3.org/1999/xlink" x="0px" y="0px"
	 viewBox="0 0 305.1 316.6" style="enable-background:new 0 0 305.1 316.6;" xml:space="preserve">
<style type="text/css">
	.st0{fill:#FFFFEB;}
	.st1{fill:none;stroke:#FFFFEB;stroke-width:2;stroke-miterlimit:10;}
</style>
<path class="st0" d="M182,102.2l-0.5,7.7l9.1,0.6l9.2,0.6l-23.4,21.8L153,154.7l-14.9-0.3l-14.4-1.1l-0.5,8.1l-0.5,8.2l6.8,0.4
	l6.9,0.4L105.6,199c-16.8,15.7-30.7,28.8-30.7,29.1s4.8,0.8,10.8,1.2l10.8,0.7l31.2-29l31.2-29l14.9,1l14.6,0.9l1.1-8.1l0.4-8
	l-6.5-0.4c-3.6-0.2-6.6-0.6-6.5-0.8c0-0.6,30.7-30.2,31.3-30.2c0.2,0,0.1,4.2-0.2,9.4l-0.6,9.4l8.2,0.5l8.2,0.5l1.6-24.5l1.6-24.5
	L204.7,96l-22.2-1.4L182,102.2z"/>
<circle class="st1" cx="150.9" cy="162.2" r="135.6"/>
</svg>
