<?xml version="1.0" encoding="utf-8"?>
<!-- Generator: Adobe Illustrator 26.0.0, SVG Export Plug-In . SVG Version: 6.00 Build 0)  -->
<svg version="1.1" id="Layer_1" xmlns="http://www.w3.org/2000/svg" xmlns:xlink="http://www.w3.org/1999/xlink" x="0px" y="0px"
	 viewBox="0 0 311.1 326.6" style="enable-background:new 0 0 311.1 326.6;" xml:space="preserve">
<style type="text/css">
	.st0{fill:#FFFFEB;}
	.st1{fill:none;stroke:#FFFFEB;stroke-width:2;stroke-miterlimit:10;}
</style>
<path class="st0" d="M113,87.4c-7.1,1.7-13.7,7.2-17.7,14.5s-3.9,6.5-7.6,63.3l-3.4,52.6l8.5,0.6l8.6,0.6l4.1-53.8l3.6-53.8l1.7-2.9
	c2.1-3.6,4.3-5.1,7.8-5.2c1.7-0.2,3.5,0.3,4.7,1.5c2.9,2.2,4,4.8,4.4,10c0.1,2.6-1.1,26.4-2.9,55l-3.2,50.5l8.5,0.6l8.6,0.6
	l3.7-54.1c3.7-53.9,3.7-54.1,5.3-56.8c1.9-3.3,4.1-4.6,8.1-4.7s6.8,1.9,8.7,6.2l1.4,3.2l-3.6,55.2c0,0-3.2,55.3-2.1,59.2
	c2.5,8.7,7.7,15.9,14.6,19.7c3.2,1.7,4.2,2,9.9,2.4c7.8,0.4,11-0.6,16.6-5.4c5.8-4.9,10.2-13.2,11.8-22.1c0.2-1.4,0.5-2.7,1-4
	c0.1,0,2.4,1.5,5.2,3.4l5,3.4l0.6-7.1c0.5-5.2,0.4-7.3-0.1-7.9c-0.4-0.4-4.8-3.9-9.6-7.8l-8.8-7l-10.4,5.3l-10.4,5.3l-0.7,8.3
	c-0.4,4.6-0.5,8.4-0.4,8.4c2.1-0.8,4.1-1.7,6-2.7c3-1.5,5.7-2.6,5.9-2.4c0.5,0.6-1.8,10.2-3,12.4c-1.6,2.9-4.5,4.2-8.2,3.6
	s-5.9-2.2-7.7-6.2l-1.7-3.1L180,171l3.2-54.9l-1.2-4.4c-1.5-5.9-4.5-11.3-8.7-15.7c-2.2-2.5-5-4.3-8.1-5.2c-8-3-16.9-1.8-23.8,3.2
	l-3.1,2.3l-2.3-2.6C130.9,88,121.2,85.3,113,87.4z"/>
<circle class="st1" cx="154.6" cy="163.6" r="135.6"/>
</svg>
