<?xml version="1.0" encoding="utf-8"?>
<!-- Generator: Adobe Illustrator 26.0.0, SVG Export Plug-In . SVG Version: 6.00 Build 0)  -->
<svg version="1.1" id="Layer_1" xmlns="http://www.w3.org/2000/svg" xmlns:xlink="http://www.w3.org/1999/xlink" x="0px" y="0px"
	 viewBox="0 0 294.2 306.2" style="enable-background:new 0 0 294.2 306.2;" xml:space="preserve">
<style type="text/css">
	.st0{fill:#FFFFEB;}
	.st1{fill:none;stroke:#FFFFEB;stroke-width:2;stroke-miterlimit:10;}
</style>
<path class="st0" d="M95.2,81.1c-0.2,3.6,1.2,10.6,3.1,16c3.2,9,8.9,16.8,18.6,26l2.1,2l-4.7,3.2c-13.8,9.3-23.8,25-24.7,38.8
	c-1.4,21.3,16.4,45.6,39.8,54.1c6.2,2.3,19.4,2.9,25.7,1.4c20.4-5,37.8-20.6,43.5-38.7c2-6.1,2.1-17.1,0.4-22.9
	c-3.6-12-10.7-22.7-20.4-30.6l-2.2-1.8l4.4-2.8c13-8.3,24.1-24.7,24.9-36.7l0.2-2.9l-9.1-0.6l-9-0.6l-0.7,3.5
	c-2.1,11.2-12.9,23.2-24.5,27.4c-13.1,4.7-26.7,1.5-36.9-8.6c-6.5-6.2-10.7-14.5-11.8-23.4l-0.4-3.7l-9.1-0.6l-9.1-0.6L95.2,81.1z
	 M153.7,136.7c15.7,3.8,29.2,21.5,28.2,36.9c-1.2,17.1-21.1,33.8-39.2,32.5c-16.6-1.1-33.4-17.9-34.6-34.5c-0.4-4.6,1.4-10.8,5-16.8
	c5.8-9.9,17.7-18,27.7-18.9C145.1,135.4,149.5,135.7,153.7,136.7L153.7,136.7z"/>
<circle class="st1" cx="148.8" cy="153.1" r="135.6"/>
</svg>
