<?xml version="1.0" encoding="utf-8"?>
<!-- Generator: Adobe Illustrator 26.0.0, SVG Export Plug-In . SVG Version: 6.00 Build 0)  -->
<svg version="1.1" id="Layer_1" xmlns="http://www.w3.org/2000/svg" xmlns:xlink="http://www.w3.org/1999/xlink" x="0px" y="0px"
	 viewBox="0 0 294.1 305.6" style="enable-background:new 0 0 294.1 305.6;" xml:space="preserve">
<style type="text/css">
	.st0{fill:#FFFFEB;}
	.st1{fill:none;stroke:#FFFFEB;stroke-width:2;stroke-miterlimit:10;}
</style>
<path class="st0" d="M108.8,76.3c-9.7,2.2-17.4,9.2-21.2,19.4c-1.5,4-1.7,6.7-5,53.5l-3.5,49.3l8.8,0.5l8.9,0.5l4.2-50.4l3.8-50.3
	l1.8-2.7c2.2-3.4,4.4-4.7,8.1-4.8c3.4-0.1,6.6,1.7,8.2,4.7c1.8,3.3,1.6,10.8-1.8,58.7l-3.2,46.1l8.9,0.5l8.8,0.5l3.8-51
	c3.7-49.6,3.9-51,5.3-53.1c2-2.9,4.4-4.2,8.4-4.3c2.6-0.1,3.6,0.2,5.3,1.4c4,2.6,4.4,4.3,4.7,15.5c0.6,36.6,3.5,57.9,10.5,78.3
	l2.6,7.7l-2.6,3.9c-3.7,5.7-8.4,10.7-13.9,14.7l-4.2,3l5.8,5.7c1.9,2.1,4,3.9,6.2,5.6c1.1-0.3,8.9-7.6,12.5-11.8
	c4.9-5.5,4.7-5.4,4.9-4.5c0.6,1.8,7.6,11.6,10.5,14.7l3.3,3.5l6.6-5.1l6.6-5.1l-4.1-3.9c-4.8-4.8-8.8-10.4-11.8-16.4l-1.8-3.6
	l2.6-4.9c10.7-20,20.8-55.2,22.6-79.2c0.5-6.4,0.3-8.3-0.6-11.8c-2.6-8.8-7.8-15.4-15.1-18.8c-3.2-1.6-4.4-1.8-9.9-2.1
	c-5.3-0.3-6.9-0.2-10.1,0.9c-2.4,0.9-4.7,2.1-6.9,3.4l-3,2.1l-2.3-2.3c-1.8-1.6-3.8-3-5.9-4.2c-3.3-1.7-4.3-1.9-10.2-2.2
	c-5.6-0.3-7.1-0.2-10.3,0.9c-2.4,0.9-4.7,2-6.9,3.4l-3.2,2.2l-2.3-2.3C127.2,77.1,117.1,74.5,108.8,76.3z M197,97
	c5.7,2.9,6.1,11,1.5,34.9c-2.3,12.4-5.5,24.7-9.6,36.7c-2.4,6.9-2.4,6.9-4-1.7c-2.6-15.9-4-32-4-48.1c-0.1-15.7,1.5-20.7,7.2-22.5
	C191.1,95.4,194.2,95.6,197,97z"/>
<circle class="st1" cx="149.3" cy="153.6" r="135.6"/>
</svg>
